<?xml version="1.0" encoding="utf-8"?>
<!-- Generator: Adobe Illustrator 22.0.0, SVG Export Plug-In . SVG Version: 6.00 Build 0)  -->
<svg version="1.1" id="Layer_1" xmlns="http://www.w3.org/2000/svg" xmlns:xlink="http://www.w3.org/1999/xlink" x="0px" y="0px"
	 viewBox="0 0 400 400" style="enable-background:new 0 0 400 400;" xml:space="preserve">
<style type="text/css">
	.st0{fill:#FFFFFF;}
</style>
<g id="Layer_2_1_">
	<g>
		<path class="st0" d="M147.3,148.5c0,0.1-0.1,0.3-0.1,0.4c0,0,0,0,0.1,0C147.3,148.8,147.3,148.6,147.3,148.5z"/>
		<path class="st0" d="M138.1,126.7c-5.9-21.3,8.6-61.4,48.9-67.1c-52.8,2.9-58.8,49.4-58.8,49.4s-31.3-25.9-77.7-5
			C105.9,89.5,138.1,126.7,138.1,126.7z"/>
		<path class="st0" d="M123,135.9c-23.4-18-83,9.9-89.9,40.3C62.7,136.2,116,133.2,123,135.9z"/>
		<path class="st0" d="M184.1,96.1c24.1-9.2,47.2-5.6,51.7-2.1c-12.3-2.4-31.2,6.7-31.2,6.7s9.1,1.4,11.4,4.8
			c-10.3,0.9-26.4,6.9-31.7,13.1c4.6,0,11.1,4.7,11.1,4.7s-8.6,1.4-20.2,5.3c-7.9,2.6-13.5,9.3-16.3,13.3c0.1-0.1,0.2-0.1,0.3-0.1
			c64.2-21.6,85.4,24.9,88.9,33.1c-5.7-8.4-28.1-17.6-28.1-17.6s4.9,4.2,5.2,10.4c-5.3-5.4-21.7-11.3-30.1-11.3
			c4.6,3.4,5.3,10.3,5.3,10.3s-8-4.8-19.4-9.8s-26.2-0.3-26.2-0.3s-0.3,3,0.5,24.4c0.6,15.7,6,38.2,8.8,49.1
			c-7.8-0.8-15.5-1.4-21.6-1.5c-1-13.3-3-40.3-2.6-48.1c0.5-10.4,0.8-14.6,0.8-14.6s-11.4,10.9-13,32.9c-4.9-6.1-5-9.2-5-9.2
			s-11.1,14.4-12.2,30.9c-4.4-5.4-4.8-8.8-4.8-8.8s-7.1,19.1-4.6,30.9c-4-9.6-12.7-31.1-0.3-54.8c10.5-20,19.5-27.5,33.3-33.9
			c-6-0.4-19.3,1.5-37.7,19.8c5.3-18,14.3-21.1,14.3-21.1s-14.6-0.3-31.7,16.9c-2.4,9.7-3.7,19.8-3.7,30.3
			c0,69.1,56,125.1,125.1,125.1s125.1-56,125.1-125.1c0-66.3-38.1-119.5-106.4-119.5c-17.1,0-56.4,6.7-66.9,34.2
			C152,114.4,159.2,105.6,184.1,96.1z M167.1,303c-16.8-2.6-32.5-11.2-40-21.9c-8.1-11.5-12.3-26.3-12.6-31.4
			c-0.4-5.5,0.2-12,0.6-12.9c0,0,4.8-4.4,22.1-5.1c0.9,0,1.9-0.1,2.9-0.1c10.1,0,26.7,1.7,39.7,3.3c-1.8,1.1-3.4,2.1-5,3.1
			c-4.6-0.7-9.8-1.3-15.2-1.7c-20.5-1.7-35.5-1.2-39.1,1.7c-0.1,1.2,3.7,3.5,7.8,4.8l2.1,10.9l1.7-9.9c6.7,1.6,16.1,3.1,26.6,3.9
			c0.8,0.1,1.5,0.1,2.3,0.2c-8.7,7-12.8,12.9-12.6,17.8v0.5l0.2,0.4c0.8,1.3,14.8,24.2,37.1,35.6C179.8,303.2,173.2,303.9,167.1,303
			z M191.9,300.5L191.9,300.5c-22.2-9.3-37.5-32.2-39.7-35.6c0.2-4,5.4-12.6,33.8-29.2c2-1.2,4-2.3,6.2-3.6c0.1,0,0.2-0.1,0.2-0.1
			c1-0.6,2.1-1.1,3.1-1.7c1.2-0.6,2.4-1.3,3.6-1.9c27.6-14.9,59.7-26.5,69.9-28.8c9.7-2.2,12.1,0.9,13,1.9c0.8,1.1,3.7,8.9,4.8,12.7
			l0.1,0.3c1.1,3.6,3.6,11.9,0.6,32.2c-3.4,22.4-24.7,41.5-24.9,41.7c-6.2,5.4-26.1,18.1-54.5,16.1
			C198.6,303.7,191.9,300.5,191.9,300.5z"/>
		<path class="st0" d="M215,226.4c-31.9,16.1-56.1,32.5-54.1,36.5c1.6,3.3,20-2.6,43.8-13.5l8.2,9.9l-1.7-12.9
			c3.6-1.7,7.3-3.5,11-5.4c2.4-1.2,4.7-2.4,7-3.6l9.9,17l-3.7-20.3c0.2-0.1,1.5-0.8,1.7-0.9l4.8,7.7l-1.6-9.5
			c23.1-12.8,37.6-23.6,36-26.9C274.3,200.4,246.9,210.2,215,226.4z"/>
	</g>
</g>
</svg>
